<?xml version="1.0" encoding="utf-8"?>
<!-- Generator: Adobe Illustrator 25.2.3, SVG Export Plug-In . SVG Version: 6.00 Build 0)  -->
<svg version="1.1" id="Layer_1" xmlns="http://www.w3.org/2000/svg" xmlns:xlink="http://www.w3.org/1999/xlink" x="0px" y="0px"
	 viewBox="0 0 443.2 87.6" style="enable-background:new 0 0 443.2 87.6;" xml:space="preserve">
<style type="text/css">
	.st0{fill:#B3C32E;}
	.st1{fill:none;}
	.st2{font-family:'Quattrocento-Bold';}
	.st3{font-size:37.6759px;}
</style>
<g id="Layer_2_1_">
	<path class="st0" d="M68.2,63.4c0,0,7.4-3,0.6-21s-37.4-17-39.5-18.3c0,0-6.1-1.6-9.9-8c0,0,4.1,51.1,38.9,57
		c3.9-0.3,7.1-3,7.3-3.6c0,0,1.3-23.6-21.7-30.8c-7.4-3.1-13.4-6.9-15.5-8.9c0,0,9.6,5.1,17.4,6.9C53.7,38.4,65.1,45.7,68.2,63.4z"
		/>
</g>
<rect x="79.4" y="37.3" class="st1" width="392" height="35.8"/>
<text transform="matrix(0.9369 0 0 1 79.4467 65.2342)" class="st0 st2 st3">Veda Cooking School</text>
</svg>
